<?xml version="1.0" encoding="UTF-8"?>
<svg xmlns="http://www.w3.org/2000/svg" version="1.1" viewBox="0 0 841.9 595.3">
  <defs>
    <style>
      .cls-1 {
        fill: #0c3156;
      }
    </style>
  </defs>
  <!-- Generator: Adobe Illustrator 28.6.0, SVG Export Plug-In . SVG Version: 1.2.0 Build 709)  -->
  <g>
    <g id="Layer_1">
      <g>
        <path class="cls-1" d="M340.8,347.7h-22.5v-98.4h12.3c22.9,0,34.6,9.3,34.6,27.6s-.9,7.6-2.7,11.1c-1.5,2.9-3.3,5.2-5.5,6.8,4.4,1.4,8.2,4.2,11.2,8.4,3.6,4.9,5.4,10.4,5.4,16.4,0,9.4-3.5,16.6-10.3,21.6-5.9,4.3-13.5,6.5-22.6,6.5ZM332.1,334.5h7.5c13.7,0,20.3-5.1,20.3-15.7s-7.2-15.1-22-15.1h-5.8v30.8ZM332.1,291.8h1.7c6,0,10.4-.9,13.1-2.7,3.6-2.3,5.3-6.2,5.3-12.1s-1.7-9.7-5.1-12c-2.7-1.7-7.1-2.6-13-2.6h-1.9v29.4Z"/>
        <path class="cls-1" d="M489.7,347.7h-19.7v-98.4h20.1c15,0,27.4,4,36.8,12,10.3,8.8,15.5,21.1,15.5,36.7s-5.2,28.6-15.4,37.5c-9.4,8.1-21.9,12.3-37.3,12.3ZM483.8,334.3h2.8c12.6,0,22.5-2.6,29.6-7.8,8.3-6,12.4-15.4,12.4-28s-4.2-22-12.4-28c-7.1-5.2-17.1-7.8-29.6-7.8h-2.8v71.6Z"/>
        <path class="cls-1" d="M697.9,347.7h-68l46.2-85h-38.8v-13.4h61.4l-46.2,85h45.4v13.4Z"/>
        <path class="cls-1" d="M193.9,334.7c-20.5,0-37-16.6-37-37s16.6-37,37-37,30.2,10.7,35.1,25.5h14.4c-5.2-22.5-25.3-39.3-49.5-39.3s-50.8,22.8-50.8,50.8,22.8,50.8,50.8,50.8,44.3-16.9,49.5-39.5h-14.4c-4.8,14.9-18.6,25.7-35.1,25.7Z"/>
      </g>
    </g>
  </g>
</svg>